<?xml version="1.0" encoding="UTF-8" standalone="no"?>
<!-- Created with Inkscape (http://www.inkscape.org/) -->

<svg
   version="1.1"
   id="svg1"
   width="1280"
   height="640"
   viewBox="0 0 1280 640.00001"
   xml:space="preserve"
   xmlns="http://www.w3.org/2000/svg"
   xmlns:svg="http://www.w3.org/2000/svg"><defs
     id="defs1" /><g
     id="g1"
     transform="matrix(0.91545148,0,0,0.91545148,15.518387,-30.694121)"
     style="display:inline"><text
       xml:space="preserve"
       style="font-style:normal;font-variant:normal;font-weight:300;font-stretch:normal;font-size:186.378px;line-height:normal;font-family:Avenir;-inkscape-font-specification:'Avenir Light';text-align:start;text-decoration-color:#000000;letter-spacing:0px;word-spacing:0px;writing-mode:lr-tb;direction:ltr;text-anchor:start;white-space:pre;fill:#8ac280;fill-opacity:1;stroke:#000000;stroke-width:4.33046;stroke-linecap:round;stroke-linejoin:round;stroke-opacity:0;-inkscape-stroke:none"
       x="760.6499"
       y="556.99896"
       id="text1"><tspan
         id="tspan1"
         x="760.6499"
         y="556.99896"
         style="font-size:186.378px;fill:#8ac280;fill-opacity:1;stroke-width:4.33046">misuka</tspan></text><path
       d="m 461.80447,495.12155 c 0,-1.61527 -0.0622,-3.54118 -0.1864,-5.77772 -0.12416,-2.36077 -0.2485,-4.72155 -0.37276,-7.08232 0,-2.36077 -0.0621,-4.53517 -0.18636,-6.52321 -0.12417,-2.11228 -0.18638,-3.72754 -0.18638,-4.8458 h 11.18263 c 0.12416,3.23054 0.18637,6.33682 0.18637,9.31885 0.12417,2.98204 0.31062,4.90795 0.55914,5.77771 h 0.55914 c 2.23652,-4.72157 5.96408,-8.75974 11.18261,-12.11454 5.21862,-3.47903 11.3069,-5.21854 18.26499,-5.21854 5.71557,0 10.93415,1.49102 15.65569,4.47304 4.72158,2.85779 8.13851,7.57934 10.25078,14.16467 2.7335,-6.46107 6.77173,-11.18263 12.11453,-14.16467 5.46706,-2.98202 11.18267,-4.47304 17.1467,-4.47304 6.70959,0 12.17666,1.05612 16.40122,3.1684 4.22452,2.11228 7.51719,4.90794 9.87798,8.38697 2.48506,3.35481 4.16242,7.26873 5.03216,11.74179 0.99401,4.47304 1.49106,9.07037 1.49106,13.79191 v 51.25377 H 579.5949 v -50.69464 c 0,-3.47903 -0.31057,-6.83383 -0.93188,-10.06437 -0.62121,-3.35478 -1.73949,-6.33682 -3.35479,-8.94612 -1.49097,-2.60927 -3.66538,-4.65942 -6.52319,-6.15044 -2.7335,-1.61526 -6.33683,-2.4229 -10.80989,-2.4229 -5.21855,0 -9.50523,0.99399 -12.86001,2.98203 -3.35481,1.86378 -6.02625,4.28668 -8.01426,7.26871 -1.86376,2.98205 -3.23054,6.21259 -4.10028,9.69161 -0.7455,3.47906 -1.11826,6.77173 -1.11826,9.87801 v 48.45811 h -11.18266 v -51.8129 c 0,-7.95209 -1.49107,-14.35106 -4.47308,-19.19686 -2.85775,-4.84581 -7.33082,-7.26871 -13.41915,-7.26871 -4.1003,0 -8.01422,0.7455 -11.74176,2.23652 -3.60329,1.36676 -6.77172,3.54117 -9.50524,6.52321 -2.60927,2.85777 -4.72157,6.5232 -6.33684,10.99626 -1.491,4.34881 -2.23653,9.50526 -2.23653,15.46932 v 43.05316 H 461.80447 Z M 429.95856,470.8925 h -11.18265 v 86.10632 h 11.18265 z m 2.79564,-34.10706 c 0,-2.36076 -0.80762,-4.34879 -2.42289,-5.96407 -1.61527,-1.61525 -3.60329,-2.4229 -5.96407,-2.4229 -2.36079,0 -4.34883,0.80765 -5.96407,2.4229 -1.61529,1.61528 -2.42292,3.60331 -2.42292,5.96407 0,2.36078 0.80763,4.3488 2.42292,5.96408 1.61524,1.61527 3.60328,2.4229 5.96407,2.4229 2.36078,0 4.3488,-0.80763 5.96407,-2.4229 1.61527,-1.61528 2.42289,-3.6033 2.42289,-5.96408 z m -45.84876,98.22086 c -2.36079,4.59731 -5.83983,8.13848 -10.43714,10.6235 -4.5973,2.36079 -9.44311,3.54116 -14.53743,3.54116 -2.36078,0 -4.72155,-0.37276 -7.08233,-1.11828 -2.36079,-0.74548 -4.47307,-1.80162 -6.33684,-3.1684 -1.86376,-1.36674 -3.3548,-2.98202 -4.47304,-4.8458 -1.24253,-1.98804 -1.86379,-4.22456 -1.86379,-6.70957 0,-3.97606 1.30465,-6.9581 3.91393,-8.94612 2.48503,-1.98802 5.59132,-3.54118 9.31887,-4.65942 3.72754,-1.11828 7.82785,-2.05016 12.30092,-2.79567 4.47303,-0.86976 8.57336,-2.11228 12.30088,-3.72755 3.72756,-1.73952 6.89597,-4.10032 9.50525,-7.08232 2.48502,-2.98205 3.72754,-7.20664 3.72754,-12.67368 0,-4.22456 -0.86977,-7.88999 -2.60929,-10.99626 -1.73951,-3.1063 -3.97602,-5.65344 -6.70957,-7.64146 -2.85779,-2.11229 -6.0262,-3.66542 -9.50525,-4.65943 -3.47904,-0.99402 -7.02021,-1.49102 -10.6235,-1.49102 -7.08233,0 -13.17067,1.30461 -18.26498,3.9139 -5.21857,2.60928 -9.25675,6.70958 -12.11453,12.30091 l 10.06438,5.96407 c 2.11227,-3.97606 4.78369,-6.95807 8.01423,-8.9461 3.10627,-2.11228 7.20658,-3.16841 12.3009,-3.16841 1.98802,0 4.10028,0.31062 6.3368,0.93187 2.1123,0.62126 4.03821,1.49103 5.77773,2.60929 1.73951,1.11826 3.23053,2.54716 4.47305,4.28667 1.11826,1.73954 1.67739,3.72756 1.67739,5.96408 0,3.8518 -1.2425,6.70958 -3.72755,8.57336 -2.60928,1.86378 -5.77769,3.35481 -9.50524,4.47307 -3.72754,0.99402 -7.82783,1.86375 -12.30089,2.60927 -4.47307,0.74551 -8.57336,1.98803 -12.30092,3.72754 -3.72753,1.61528 -6.83384,4.03819 -9.31886,7.2687 -2.60928,3.1063 -3.91392,7.57936 -3.91392,13.41919 0,4.47308 0.86975,8.38697 2.60927,11.74178 1.61528,3.23052 3.91394,5.96403 6.89598,8.2006 2.85778,2.23653 6.15045,3.91393 9.87798,5.03217 3.72756,1.11827 7.64148,1.6774 11.74178,1.6774 7.45508,0 14.28892,-1.42891 20.5015,-4.28669 6.08832,-2.85777 10.8099,-7.2687 14.1647,-13.23278 z m -79.21048,-2.23652 c 0,1.61526 0.0621,3.60327 0.18638,5.96406 0.12417,2.23652 0.18638,4.53518 0.18638,6.89596 0.12415,2.36079 0.24851,4.59731 0.37275,6.70958 0.12416,1.98803 0.18639,3.54119 0.18639,4.65944 H 297.4442 c -0.12415,-3.23052 -0.24851,-6.33682 -0.37275,-9.31887 0,-2.98203 -0.12416,-4.90792 -0.37275,-5.77769 h -0.55914 c -2.23652,4.72155 -5.96407,8.82185 -11.18262,12.3009 -5.21856,3.35478 -11.30689,5.03218 -18.26497,5.03218 -6.70958,0 -12.23881,-1.05614 -16.58759,-3.1684 -4.22456,-2.11229 -7.57936,-4.84582 -10.06437,-8.20062 -2.36079,-3.47903 -3.97605,-7.45509 -4.84582,-11.92813 -0.86977,-4.47308 -1.30464,-9.07037 -1.30464,-13.79194 V 470.8925 h 11.18261 v 50.69463 c 0,3.47902 0.31065,6.89595 0.93192,10.25075 0.62127,3.23055 1.67738,6.15044 3.16841,8.75972 1.61527,2.60928 3.78967,4.72157 6.52321,6.33685 2.85778,1.491 6.52321,2.23651 10.99627,2.23651 4.10028,0 7.95207,-0.68337 11.55537,-2.05015 3.72755,-1.49101 6.89597,-3.6654 9.50525,-6.52321 2.73352,-2.98201 4.84584,-6.64744 6.33683,-10.99626 1.61527,-4.47305 2.42291,-9.69161 2.42291,-15.65568 V 470.8925 h 11.18263 z M 204.06921,416.09756 h -11.18262 v 93.93418 l -42.49408,-38.95286 h -16.40113 l 44.35778,39.32561 -49.57642,46.59433 h 16.96036 l 47.15349,-45.47607 v 45.47607 h 11.18262 z m -89.56672,104.74405 v 11.36902 c 0.12417,3.35479 0.24852,6.46107 0.37273,9.31888 0.12414,2.85778 0.24851,5.52919 0.37283,8.01421 0.24846,2.48504 0.55904,4.97007 0.9318,7.4551 h -10.43713 c -0.74545,-4.22455 -1.11829,-8.884 -1.11829,-13.9783 h -0.3727 c -3.23055,5.59132 -7.268709,9.69161 -12.114569,12.30089 -4.7215,2.6093 -10.74773,3.91393 -18.07863,3.91393 -3.727488,0 -7.393001,-0.49699 -10.996144,-1.491 -3.603308,-0.86977 -6.833919,-2.29866 -9.691682,-4.2867 -2.857838,-2.11228 -5.21861,-4.78367 -7.082318,-8.01421 -1.739559,-3.23057 -2.609308,-7.14447 -2.609308,-11.74177 0,-6.58533 1.677391,-11.80391 5.032164,-15.65569 3.354743,-3.85179 7.455024,-6.7096 12.300988,-8.57337 4.970064,-1.98804 10.188618,-3.23056 15.65556,-3.72755 5.59139,-0.62126 10.49936,-0.93186 14.7239,-0.93186 H 104.4381 v -5.21858 c 0,-7.45511 -2.29865,-12.79792 -6.896039,-16.02845 -4.59719,-3.23054 -10.37499,-4.84581 -17.33303,-4.84581 -9.940121,0 -18.699943,3.23054 -26.279224,9.69162 l -6.523216,-7.64148 c 4.100293,-3.97604 9.194713,-6.95807 15.282948,-8.94611 6.088386,-2.11228 11.928102,-3.1684 17.519492,-3.1684 10.43717,0 18.76201,2.48503 24.974499,7.45508 6.21269,4.84581 9.31896,12.73577 9.31896,23.66992 z m -22.365329,-7.08234 c -4.7215,0 -9.31888,0.31063 -13.79189,0.9319 -4.34885,0.62124 -8.324896,1.67739 -11.928141,3.16842 -3.479078,1.491 -6.274703,3.47903 -8.386975,5.96406 -2.112255,2.48503 -3.168404,5.59133 -3.168404,9.31886 0,2.60928 0.559181,4.97007 1.677364,7.08236 1.242607,1.98799 2.795629,3.6654 4.659383,5.03217 1.863889,1.24252 3.914048,2.23652 6.150436,2.98204 2.360873,0.62126 4.721663,0.93188 7.082457,0.93188 5.96409,0 10.872,-0.86975 14.72377,-2.60927 3.85185,-1.73954 6.89599,-3.97607 9.13251,-6.70958 2.360799,-2.85778 3.976029,-6.02621 4.845769,-9.50525 0.86977,-3.6033 1.30466,-7.2066 1.30466,-10.80989 v -5.7777 z"
       id="text1-61"
       style="font-weight:300;font-size:289.832px;font-family:Avenir;-inkscape-font-specification:'Avenir Light';letter-spacing:0px;word-spacing:0px;white-space:pre;display:inline;fill:#8ac280;fill-opacity:0.345098;stroke:#000000;stroke-width:4.33044;stroke-linecap:round;stroke-linejoin:round;stroke-opacity:0"
       aria-label="misuka" /><rect
       style="fill:#8ac280;fill-opacity:1;stroke:#000000;stroke-width:3.77953;stroke-linecap:round;stroke-linejoin:round;stroke-opacity:0;-inkscape-stroke:none"
       id="rect7"
       width="6.6081252"
       height="582.34766"
       x="679.45569"
       y="91.909401" /></g></svg>
