<?xml version="1.0" encoding="UTF-8" standalone="no"?>
<!-- Created with Inkscape (http://www.inkscape.org/) -->

<svg
   version="1.1"
   id="svg1"
   width="1280.3779"
   height="1280.3779"
   viewBox="0 0 1280.3779 1280.3779"
   xml:space="preserve"
   xmlns="http://www.w3.org/2000/svg"
   xmlns:svg="http://www.w3.org/2000/svg"><defs
     id="defs1" /><g
     id="layer2"
     style="display:inline"
     transform="translate(0.18927217,320.18916)"><rect
       style="display:inline;fill:#808080;fill-opacity:0;stroke:#000000;stroke-width:0.377953;stroke-linecap:round;stroke-linejoin:round;stroke-opacity:0"
       id="rect4"
       width="1280"
       height="1280"
       x="-0.00029567382"
       y="-320.00018" /><text
       xml:space="preserve"
       style="font-style:normal;font-variant:normal;font-weight:300;font-stretch:normal;font-size:338.889px;line-height:normal;font-family:Avenir;-inkscape-font-specification:'Avenir Light';text-align:start;text-decoration-color:#000000;letter-spacing:0px;word-spacing:0px;writing-mode:lr-tb;direction:ltr;text-anchor:start;white-space:pre;display:inline;fill:#8ac280;fill-opacity:1;stroke:#000000;stroke-width:7.87402;stroke-linecap:round;stroke-linejoin:round;stroke-opacity:0;-inkscape-stroke:none"
       x="118.31667"
       y="247.12433"
       id="text1-5-1"><tspan
         id="tspan1-7-2"
         x="118.31667"
         y="247.12433"
         style="font-size:338.889px;fill:#8ac280;fill-opacity:1;stroke-width:7.87402">misuka</tspan></text><path
       d="m 379.64448,505.23481 c 0,2.93703 0.11302,6.43889 0.33889,10.50555 0.22591,4.29261 0.45184,8.5852 0.67778,12.87777 0,4.2926 0.11302,8.2463 0.33888,11.8611 0.22592,3.84075 0.33888,6.77779 0.33888,8.81113 H 361.0056 c -0.22594,-5.87408 -0.3389,-11.52222 -0.3389,-16.94443 -0.22593,-5.42223 -0.56479,-8.92409 -1.01667,-10.50557 h -1.01666 c -4.06667,8.58519 -10.84445,15.92778 -20.33332,22.02777 -9.48891,6.32593 -20.55926,9.48889 -33.21112,9.48889 -10.39258,0 -19.88147,-2.71112 -28.46667,-8.13332 -8.58517,-5.19631 -14.79813,-13.78148 -18.63888,-25.75556 -4.97036,11.74816 -12.31294,20.33333 -22.02777,25.75556 -9.94073,5.4222 -20.33333,8.13332 -31.17776,8.13332 -12.20001,0 -22.14074,-1.92037 -29.82222,-5.76111 -7.68149,-3.84073 -13.66853,-8.92407 -17.9611,-15.24998 -4.51852,-6.10001 -7.56853,-13.21666 -9.15,-21.35001 -1.80741,-8.13333 -2.71112,-16.49259 -2.71112,-25.07777 v -93.19443 h 20.33334 v 92.17778 c 0,6.3259 0.56481,12.42591 1.69444,18.29998 1.12964,6.09999 3.16297,11.52221 6.09999,16.26666 2.71112,4.74444 6.66482,8.47221 11.86111,11.18333 4.97038,2.93703 11.52223,4.40556 19.65556,4.40556 9.48886,0 17.28333,-1.80741 23.38332,-5.42223 6.09999,-3.38888 10.95741,-7.79444 14.57223,-13.21666 3.38888,-5.42222 5.87408,-11.2963 7.45555,-17.62221 1.35557,-6.32593 2.03334,-12.31297 2.03334,-17.96112 v -88.11109 h 20.33331 v 94.2111 c 0,14.45926 2.71114,26.09442 8.13335,34.90554 5.19629,8.81109 13.32962,13.21667 24.39998,13.21667 7.45557,0 14.57224,-1.35557 21.35,-4.06667 6.55185,-2.48518 12.31296,-6.43888 17.28333,-11.86109 4.74444,-5.19631 8.58519,-11.86112 11.52223,-19.99445 2.7111,-7.90742 4.06665,-17.28334 4.06665,-28.12777 v -78.28333 h 20.33334 z m 57.90521,44.05555 h 20.33333 V 392.72372 h -20.33333 z m -5.08333,62.01665 c 0,4.29258 1.46851,7.90742 4.40555,10.84444 2.93703,2.93703 6.55184,4.40555 10.84444,4.40555 4.2926,0 7.9074,-1.46852 10.84445,-4.40555 2.93704,-2.93702 4.40555,-6.55186 4.40555,-10.84444 0,-4.29259 -1.46851,-7.90741 -4.40555,-10.84444 -2.93705,-2.93703 -6.55185,-4.40556 -10.84445,-4.40556 -4.2926,0 -7.90741,1.46853 -10.84444,4.40556 -2.93704,2.93703 -4.40555,6.55185 -4.40555,10.84444 z m 83.36657,-178.5944 c 4.2926,-8.35926 10.61852,-14.79815 18.97778,-19.31667 8.35925,-4.29259 17.17036,-6.43888 26.43334,-6.43888 4.29257,0 8.58516,0.67778 12.87776,2.03333 4.29259,1.35555 8.13334,3.27593 11.52221,5.7611 3.38889,2.48518 6.10001,5.42221 8.13333,8.81112 2.25927,3.61482 3.3889,7.68148 3.3889,12.19999 0,7.22963 -2.37222,12.65186 -7.11667,16.26666 -4.51852,3.61481 -10.16665,6.43889 -16.94444,8.47223 -6.77778,2.03332 -14.23334,3.72778 -22.36667,5.08333 -8.13333,1.58149 -15.5889,3.84074 -22.36666,6.77777 -6.77777,3.16297 -12.53888,7.45557 -17.28332,12.87777 -4.51853,5.42223 -6.77778,13.10373 -6.77778,23.04444 0,7.68148 1.58148,14.3463 4.74444,19.99445 3.16297,5.64814 7.22962,10.27962 12.2,13.89443 5.1963,3.84076 10.95741,6.66481 17.28333,8.47222 6.32592,1.8074 12.76481,2.71112 19.31666,2.71112 12.87777,0 23.94815,-2.37221 33.21111,-7.11665 9.48888,-4.74445 16.83147,-12.2 22.02776,-22.36667 l -18.29998,-10.84446 c -3.84076,7.22964 -8.69816,12.65186 -14.57222,16.26668 -5.64815,3.84074 -13.10371,5.76111 -22.36667,5.76111 -3.61482,0 -7.45555,-0.56483 -11.52222,-1.69444 -3.84074,-1.12964 -7.3426,-2.71114 -10.50554,-4.74446 -3.16297,-2.03332 -5.87408,-4.63148 -8.13335,-7.79443 -2.03332,-3.16297 -3.04999,-6.77778 -3.04999,-10.84446 0,-7.00369 2.25925,-12.19998 6.77776,-15.58888 4.74446,-3.38888 10.50556,-6.1 17.28335,-8.13334 6.77778,-1.8074 14.23333,-3.38886 22.36666,-4.74443 8.13335,-1.35556 15.58889,-3.61482 22.36667,-6.77776 6.77776,-2.93704 12.42592,-7.34262 16.94444,-13.21667 4.74444,-5.64814 7.11665,-13.78148 7.11665,-24.40002 0,-8.13333 -1.58148,-15.24997 -4.74444,-21.34997 -2.93702,-5.87407 -7.11666,-10.84443 -12.53889,-14.9111 -5.19628,-4.06669 -11.18333,-7.11668 -17.96109,-9.15001 -6.77779,-2.03332 -13.89445,-3.05 -21.35002,-3.05 -13.55555,0 -25.98146,2.59815 -37.27776,7.79444 -11.07037,5.1963 -19.65554,13.21667 -25.75555,24.06111 z m 144.02793,4.06666 c 0,-2.93703 -0.11303,-6.55184 -0.33888,-10.84445 -0.22592,-4.06665 -0.33889,-8.24629 -0.33889,-12.53888 -0.22592,-4.29259 -0.45185,-8.35925 -0.67777,-12.2 -0.22593,-3.61482 -0.33889,-6.4389 -0.33889,-8.47222 h 20.33332 c 0.22593,5.87406 0.45187,11.52221 0.67778,16.94445 0,5.42221 0.22593,8.92406 0.67778,10.50553 h 1.01667 c 4.06666,-8.58516 10.84445,-16.04072 20.33332,-22.36665 9.48888,-6.09999 20.55926,-9.14999 33.21109,-9.14999 12.20001,0 22.25371,1.92037 30.16112,5.76111 7.68148,3.84074 13.78148,8.81111 18.29999,14.91111 4.2926,6.32592 7.22963,13.55556 8.81111,21.68888 1.58148,8.13333 2.37224,16.49259 2.37224,25.07778 v 93.19442 h -20.33333 v -92.17777 c 0,-6.32591 -0.56483,-12.53887 -1.69446,-18.63888 -1.12963,-5.87407 -3.04999,-11.18332 -5.7611,-15.92776 -2.93703,-4.74445 -6.89074,-8.58519 -11.86112,-11.52223 -5.19629,-2.7111 -11.8611,-4.06666 -19.99445,-4.06666 -7.45554,0 -14.45923,1.24258 -21.01108,3.72777 -6.77778,2.71111 -12.5389,6.66482 -17.28333,11.86112 -4.97038,5.4222 -8.81113,12.08703 -11.52223,19.99445 -2.93704,8.13332 -4.40556,17.6222 -4.40556,28.46665 v 78.28331 h -20.33333 z m 188.4221,212.1444 h 20.33333 V 478.12371 l 77.2667,70.82776 h 29.82211 l -80.6555,-71.50555 90.14453,-84.7222 H 954.3552 L 868.61629,475.4126 V 392.72372 H 848.28296 Z M 1011.1416,458.46815 v -20.67222 c -0.2259,-6.09999 -0.4518,-11.74815 -0.6777,-16.94443 -0.226,-5.1963 -0.4519,-10.0537 -0.6779,-14.57223 -0.4518,-4.51851 -1.0165,-9.03702 -1.6943,-13.55555 h 18.9778 c 1.3554,7.68148 2.0333,16.1537 2.0333,25.41667 h 0.6777 c 5.8741,-10.16667 13.2166,-17.62223 22.0279,-22.36667 8.585,-4.74445 19.5425,-7.11666 32.8722,-7.11666 6.7778,0 13.4427,0.90369 19.9943,2.7111 6.5518,1.58149 12.426,4.17963 17.6222,7.79446 5.1964,3.84073 9.489,8.69813 12.8778,14.57222 3.163,5.87407 4.7445,12.99072 4.7445,21.34999 0,11.97407 -3.05,21.46295 -9.15,28.46665 -6.0999,7.0037 -13.5554,12.2 -22.3668,15.5889 -9.0369,3.61481 -18.5258,5.87407 -28.4663,6.77777 -10.1669,1.12964 -19.091,1.69444 -26.7725,1.69444 h -23.7221 v 9.48889 c 0,13.55556 4.1795,23.27037 12.5389,29.14444 8.3592,5.87407 18.8648,8.81111 31.5166,8.81111 18.0741,0 34.0019,-5.87407 47.7833,-17.62222 l 11.8612,13.89445 c -7.4556,7.22961 -16.7187,12.65183 -27.7889,16.26665 -11.0704,3.84074 -21.6888,5.76111 -31.8556,5.76111 -18.9778,0 -34.1148,-4.51853 -45.411,-13.55555 -11.2964,-8.81111 -16.9446,-23.15741 -16.9446,-43.03888 z m 40.6668,12.87777 c 8.585,0 16.9444,-0.56479 25.0777,-1.69443 7.9075,-1.12965 15.137,-3.05001 21.6889,-5.76112 6.3259,-2.71109 11.4092,-6.32591 15.2499,-10.84442 3.8408,-4.51853 5.7611,-10.16669 5.7611,-16.94445 0,-4.74444 -1.0167,-9.03704 -3.0499,-12.87778 -2.2594,-3.61481 -5.0833,-6.66482 -8.4722,-9.15001 -3.389,-2.25925 -7.1169,-4.06664 -11.1833,-5.4222 -4.2927,-1.12964 -8.5853,-1.69445 -12.8779,-1.69445 -10.8445,0 -19.7685,1.58149 -26.7722,4.74443 -7.0037,3.16297 -12.5389,7.22964 -16.6055,12.2 -4.2926,5.19631 -7.2297,10.9574 -8.8112,17.28334 -1.5813,6.55185 -2.3721,13.1037 -2.3721,19.65553 v 10.50556 z"
       id="text1-61"
       style="font-weight:300;font-size:289.832px;font-family:Avenir;-inkscape-font-specification:'Avenir Light';letter-spacing:0px;word-spacing:0px;white-space:pre;display:inline;fill:#8ac280;fill-opacity:0.345098;stroke:#000000;stroke-width:7.87402;stroke-linecap:round;stroke-linejoin:round;stroke-opacity:0"
       aria-label="misuka" /><rect
       style="display:inline;fill:#8ac280;fill-opacity:1;stroke:#000000;stroke-width:7.64416;stroke-linecap:round;stroke-linejoin:round;stroke-opacity:0;-inkscape-stroke:none"
       id="rect7"
       width="13.26865"
       height="1173.0665"
       x="313.28952"
       y="53.333038"
       transform="matrix(0,1,1,0,0,0)" /></g></svg>
